<?xml version="1.0" encoding="UTF-8" standalone="no"?>
<svg
   id="Layer_1"
   data-name="Layer 1"
   viewBox="0 0 1806.1273 1081.00871"
   version="1.1"
   sodipodi:docname="flame.svg"
   inkscape:version="1.2 (dc2aeda, 2022-05-15)"
   xmlns:inkscape="http://www.inkscape.org/namespaces/inkscape"
   xmlns:sodipodi="http://sodipodi.sourceforge.net/DTD/sodipodi-0.dtd"
   xmlns="http://www.w3.org/2000/svg"
   xmlns:svg="http://www.w3.org/2000/svg">
  <sodipodi:namedview
     id="namedview89"
     pagecolor="#ffffff"
     bordercolor="#666666"
     borderopacity="1.0"
     inkscape:showpageshadow="2"
     inkscape:pageopacity="0.0"
     inkscape:pagecheckerboard="0"
     inkscape:deskcolor="#d1d1d1"
     showgrid="false"
     inkscape:zoom="0.21831462"
     inkscape:cx="922.97986"
     inkscape:cy="570.27788"
     inkscape:window-width="1570"
     inkscape:window-height="865"
     inkscape:window-x="0"
     inkscape:window-y="49"
     inkscape:window-maximized="0"
     inkscape:current-layer="Layer_1" />
  <defs
     id="defs38">
    <clipPath
       id="clippath">
      <rect
         x="522.58995"
         width="603.01099"
         height="1068.33899"
         style="fill: none; stroke-width: 0px;"
         id="rect2" />
    </clipPath>
    <clipPath
       id="clippath-1">
      <rect
         x="977.79259"
         y="258.38507"
         width="696.14148"
         height="809.95392"
         style="fill: none; stroke-width: 0px;"
         id="rect5" />
    </clipPath>
    <clipPath
       id="clippath-2">
      <rect
         x="235.50615"
         y="126.98792"
         width="704.49121"
         height="941.35107"
         style="fill: none; stroke-width: 0px;"
         id="rect8" />
    </clipPath>
    <clipPath
       id="clippath-3">
      <rect
         x="382.88057"
         y="172.05371"
         width="419.6301"
         height="896.28528"
         style="fill: none; stroke-width: 0px;"
         id="rect11" />
    </clipPath>
    <clipPath
       id="clippath-4">
      <rect
         x="1038.93956"
         y="427.55469"
         width="430.50293"
         height="640.7843"
         style="fill: none; stroke-width: 0px;"
         id="rect14" />
    </clipPath>
    <clipPath
       id="clippath-5">
      <rect
         y="320.02716"
         width="459.0128"
         height="748.31183"
         style="fill: none; stroke-width: 0px;"
         id="rect17" />
    </clipPath>
    <clipPath
       id="clippath-6">
      <rect
         x="1349.26561"
         y="333.42279"
         width="456.86169"
         height="734.9162"
         style="fill: none; stroke-width: 0px;"
         id="rect20" />
    </clipPath>
    <clipPath
       id="clippath-7">
      <rect
         x="205.96687"
         y="508.07776"
         width="364.37686"
         height="557.97489"
         style="fill: none; stroke-width: 0px;"
         id="rect23" />
    </clipPath>
    <clipPath
       id="clippath-8">
      <rect
         x="537.61455"
         y="323.09717"
         width="502.33649"
         height="745.24182"
         style="fill: none; stroke-width: 0px;"
         id="rect26" />
    </clipPath>
    <clipPath
       id="clippath-9">
      <rect
         x="935.36937"
         y="331.8927"
         width="383.474"
         height="736.44629"
         style="fill: none; stroke-width: 0px;"
         id="rect29" />
    </clipPath>
    <clipPath
       id="clippath-10">
      <rect
         x="1419.8026"
         y="610.26089"
         width="316.6886"
         height="458.07809"
         style="fill: none; stroke-width: 0px;"
         id="rect32" />
    </clipPath>
    <clipPath
       id="clippath-11">
      <rect
         x="1335.0565"
         y="556.42838"
         width="279.46497"
         height="511.91061"
         style="fill: none; stroke-width: 0px;"
         id="rect35" />
    </clipPath>
  </defs>
  <g
     clip-path="url(#clippath)"
     id="g42"
     transform="translate(0,24)">
    <path
       d="M 720.81548,552.46991 C 820.96074,420.29779 967.43651,300.12842 927.78344,149.51941 903.71838,58.11499 930.61156,-22.69202 983.99157,7.401 c 10.06702,5.67505 15.68298,16.24902 20.92393,26.53796 166.6801,327.19843 158.859,715.02982 -20.92393,1035.21584 H 523.58996 C 538.48675,878.35097 605.28027,704.95357 720.81548,552.4699 Z"
       style="opacity:0.8933;fill:#ff4747;stroke-width:0px"
       id="path40" />
  </g>
  <g
     clip-path="url(#clippath-1)"
     id="g46"
     transform="translate(0,24)">
    <path
       d="m 1264.9016,272.40839 c -19.827,25.34979 5.662,56.94629 32.6019,81.47351 84.3941,76.8374 120.0771,169.203 69.6281,256.34769 -41.553,71.7775 -136.891,100.18469 -211.823,142.94571 -115.985,66.1882 -184.49306,193.9329 -175.77199,327.1877 l 631.36099,-5.1392 c 110.4659,-227.74551 71.046,-499.77461 -99.433,-686.87882 -51.6231,-56.65759 -114.568,-103.07587 -188.1951,-124.47516 -21.2049,-6.16302 -45.308,-8.15912 -58.3679,8.53857 z"
       style="opacity:0.8933;fill:#ff4747;stroke-width:0px"
       id="path44" />
  </g>
  <g
     clip-path="url(#clippath-2)"
     id="g50"
     transform="translate(0,24)">
    <path
       d="m 768.13817,139.27838 c 22.93579,21.29462 12.64069,57.06952 -5.7099,85.51062 -90.0174,139.51569 -260.15942,237.43298 -191.47589,384.22058 33.64459,71.90372 122.10889,102.45621 191.98315,144.8114 113.45721,68.77341 181.07001,194.62111 175.77173,327.18772 l -631.3609,-5.1392 c -94.3009,-194.7777 -94.461,-421.96282 -0.4346,-616.87322 79.6637,-165.13739 223.32541,-294.15131 402.8588,-328.25647 20.62683,-3.9184 43.16699,-5.57434 58.36761,8.53857 z"
       style="opacity:0.8933;fill:#ff4747;stroke-width:0px"
       id="path48" />
  </g>
  <g
     clip-path="url(#clippath-3)"
     id="g54"
     transform="translate(0,24)">
    <path
       d="m 578.91936,429.60046 c 39.45721,-43.81036 83.64478,-90.58405 76.03979,-148.5929 -5.57227,-42.50391 -25.42706,-92.4848 12.74408,-106.10248 20.2348,-7.21881 39.75732,7.83862 54.19513,24.99829 91.99902,109.34308 97.01318,263.89709 51.84363,400.55121 -25.83392,78.15671 -63.78674,152.20599 -70.21545,232.7307 -7.04688,88.2679 23.92896,175.66162 88.00305,238.58162 H 415.38045 c -44.22519,-129.17752 -41.79059,-269.78232 6.72711,-397.40961 34.72702,-91.35022 91.44778,-172.18152 156.8118,-244.75684 z"
       style="opacity:0.8933;fill:#ff9500;stroke-width:0px"
       id="path52" />
  </g>
  <g
     clip-path="url(#clippath-4)"
     id="g58"
     transform="translate(0,24)">
    <path
       d="m 1274.9546,434.12311 c 11.902,-12.31171 31.8089,-2.68481 43.8609,14.0238 71.3101,98.86676 4.5601,225.47998 1.6191,344.44287 -2.777,112.29041 53.359,217.85972 148.008,278.34442 l -357.3971,-1.3698 c -87.7109,-87.48989 -95.214,-227.02922 -17.2929,-323.34181 75.6109,-93.4577 224.544,-156.84012 182.7609,-273.92279 -4.7719,-13.37323 -11.114,-28.29242 -1.5589,-38.1767 z"
       style="opacity:0.8933;fill:#ffcc4d;stroke-width:0px"
       id="path56" />
  </g>
  <g
     clip-path="url(#clippath-5)"
     id="g62"
     transform="translate(0,24)">
    <path
       d="m 457.02434,1066.2851 -454.50561,1.9517 c -6.15161,-81.20514 6.43496,-162.79961 36.84232,-238.34772 27.14101,-67.43269 67.9776,-132.40169 85.5538,-202.14159 20.3719,-80.8324 10.1523,-160.72223 -27.13629,-236.92773 -10.7811,-22.0332 -20.25931,-47.80786 -3.1058,-62.93445 14.7261,-12.98615 36.69949,-5.85535 53.05341,7.46368 37.8192,30.80096 52.9608,79.28229 68.248,125.47687 21.173,63.98035 45.30209,127.12073 78.10889,186.01471 41.76981,74.9841 97.17999,142.27261 130.23462,221.59041 26.06,62.5336 37.2558,130.2607 32.70667,197.85412 z"
       style="opacity:0.8933;fill:#ff4747;stroke-width:0px"
       id="path60" />
  </g>
  <g
     clip-path="url(#clippath-6)"
     id="g66"
     transform="translate(0,24)">
    <path
       d="m 1804.7716,1067.4156 -454.506,1.9517 c 7.859,-80.08133 20.172,-159.62781 36.8429,-238.34781 15.3621,-72.5403 35.4931,-148.00398 85.5541,-202.14149 57.515,-62.19949 146.3619,-113.65723 116.809,-192.88843 -13.131,-35.20428 -44.949,-72.73145 -15.729,-95.38055 15.406,-11.94122 36.753,-5.02991 53.054,7.46381 44.354,33.995 59.5409,91.38245 61.5409,147.58649 1.9151,53.84381 -6.8689,107.96628 1.2261,161.29999 11.4919,75.72269 55.219,141.28091 82.501,212.6022 24.128,63.07249 35.253,130.37231 32.707,197.85409 z"
       style="opacity:0.8933;fill:#ff4747;stroke-width:0px"
       id="path64" />
  </g>
  <g
     clip-path="url(#clippath-7)"
     id="g70"
     transform="translate(0,24)">
    <path
       d="m 274.76787,1065.0527 294.57587,-1.3049 C 481.20855,1010.0961 432.29336,910.062 444.08385,807.55688 c 5.32321,-46.27899 23.4549,-91.59299 20.25562,-138.23441 -3.2807,-47.82669 -27.58762,-89.2789 -49.694,-131.87772 -11.11249,-21.4137 -31.32611,-36.44855 -44.9931,-23.6499 -8.00378,7.49512 -5.5051,19.7525 -2.20651,30.59363 11.3114,37.17542 20.37781,74.7934 2.34482,108.48471 -18.30371,34.19678 -59.79071,49.9173 -91.04062,73.8353 -49.18478,37.64499 -71.7565,99.12729 -71.78317,161.27899 -0.028,65.3772 24.08447,128.45382 67.80099,177.06512 z"
       style="opacity:0.8933;fill:#ffcc4d;stroke-width:0px"
       id="path68" />
  </g>
  <g
     clip-path="url(#clippath-8)"
     id="g74"
     transform="translate(0,24)">
    <path
       d="m 538.61455,1073.1285 419.36603,6.5641 C 1072.3666,951.96499 1064.5405,741.81699 940.96148,625.38669 868.22826,556.8609 756.41656,515.60059 760.35485,408.0578 c 1.42474,-38.90192 3.05731,-83.26801 -26.8291,-83.95502 -15.24597,-0.3504 -25.08008,15.66028 -32.04999,31.57672 -15.99091,36.51617 -26.08411,69.13617 -24.87189,108.5293 2.1236,69.00867 40.50031,134.78879 63.93707,201.27179 25.245,71.6123 25.90332,151.1657 0.43384,222.812 -34.42389,96.83497 -110.93683,166.62541 -202.36023,184.83591 z"
       style="opacity:0.8933;fill:#ffcc4d;stroke-width:0px"
       id="path72" />
  </g>
  <g
     clip-path="url(#clippath-9)"
     id="g78"
     transform="translate(0,24)">
    <path
       d="m 1196.5586,338.27368 c 9.9719,-4.19641 21.281,-7.73297 30.9919,-3.4079 24.8371,11.06268 4.8041,38.64813 -20.4399,60.79791 -55.2531,48.48041 -32.011,120.78326 -7.9781,184.11661 59.9781,158.05179 100.1851,322.31488 118.7111,491.1174 H 941.69438 c -8.89392,-109.94111 -6.64362,-220.30821 6.72717,-329.93631 19.72699,-161.74081 76.35295,-330.39743 248.13705,-402.68771 z"
       style="opacity:0.8933;fill:#ff9500;stroke-width:0px"
       id="path76" />
  </g>
  <g
     clip-path="url(#clippath-10)"
     id="g82"
     transform="translate(0,24)">
    <path
       d="m 1420.8026,1077.5665 286.3309,-7.3929 c -6.422,-91.11026 -15.9609,-177.20001 -33.7039,-266.78361 -11.355,-57.33121 -16.5511,-120.48151 30.837,-138.86389 10.397,-4.03342 22.973,-5.22519 28.485,-15.04071 10.672,-19.00549 -11.297,-42.05978 -40.584,-37.68369 -22.0911,3.30069 -40.267,17.6774 -55.636,33.88498 -68.436,72.17041 -94.451,171.08971 -131.224,263.07561 -23.404,58.54211 -51.66,114.98851 -84.505,168.80421 z"
       style="opacity:0.8933;fill:#ffcc4d;stroke-width:0px"
       id="path80" />
  </g>
  <g
     clip-path="url(#clippath-11)"
     id="g86"
     transform="translate(0,24)">
    <path
       d="m 1336.4586,1071.9507 277.063,-1.8956 c -6.531,-59.0257 -14.8831,-118.11232 -24.9861,-176.63291 -4.9979,-28.95041 -10.2049,-57.79581 -15.506,-86.7606 -7.8969,-43.1582 -18.8549,-83.78549 -32.2849,-121.72009 -22.666,-64.0228 -79.8551,-97.42599 -124.342,-117.09512 -32.377,-14.31458 -64.509,-16.9649 -76.975,12.05042 -13.812,32.1474 22.184,56.5401 48.6799,81.99289 42.0811,40.42542 51.6161,102.9072 33.0851,158.83382 -12.8671,38.83389 -38.321,71.84209 -56.061,108.63699 -21.391,44.36476 -31.2531,93.4054 -28.673,142.5902 z"
       style="opacity:0.8933;fill:#ff9500;stroke-width:0px"
       id="path84" />
  </g>
</svg>
